<svg width="1057" height="265" viewBox="0 0 1057 265" fill="none" xmlns="http://www.w3.org/2000/svg">
<rect width="1057" height="265" rx="40" fill="#090909"/>
<path d="M73.3379 146.331C81.8346 146.331 88.7226 139.668 88.7226 131.449C88.7226 123.231 81.8346 116.568 73.3379 116.568C64.8411 116.568 57.9531 123.231 57.9531 131.449C57.9531 139.668 64.8411 146.331 73.3379 146.331Z" fill="#FF6309"/>
<path d="M183.655 207.922C192.151 207.922 199.039 201.26 199.039 193.041C199.039 184.823 192.151 178.16 183.655 178.16C175.158 178.16 168.27 184.823 168.27 193.041C168.27 201.26 175.158 207.922 183.655 207.922Z" fill="#FFB515"/>
<path d="M146.881 94.6278C166.037 94.6278 181.931 108.387 184.563 126.225H210.922C209.725 112.208 203.717 99.144 193.672 88.841C187.239 92.01 179.33 92.0704 172.61 88.3191C165.886 84.5629 161.984 77.902 161.609 70.9214C156.836 69.8449 151.904 69.2871 146.881 69.2871C137.263 69.2871 127.968 71.3177 119.516 75.1685L132.712 97.2765C137.094 95.5705 141.876 94.6278 146.881 94.6278Z" fill="#FF6309"/>
<path d="M184.565 136.658C181.94 154.503 166.042 168.27 146.881 168.27C141.873 168.27 137.089 167.327 132.707 165.618L119.509 187.728C127.96 191.58 137.258 193.612 146.879 193.612C151.906 193.612 156.844 193.051 161.62 191.975C161.987 184.986 165.891 178.314 172.62 174.556C179.341 170.801 187.255 170.862 193.689 174.037C203.725 163.733 209.726 150.67 210.92 136.658H184.565Z" fill="#C90016"/>
<path d="M108.813 131.45C108.813 119.719 114.514 109.253 123.375 102.505L110.183 80.4004C107.088 82.4913 104.161 84.8579 101.435 87.4936C93.7996 94.8787 88.3246 103.795 85.3114 113.527C91.3817 117.331 95.4015 123.933 95.4015 131.45C95.4015 138.966 91.3817 145.57 85.3114 149.372C88.3246 159.104 93.7996 168.02 101.435 175.405C104.16 178.041 107.083 180.404 110.176 182.497L123.37 160.391C114.511 153.643 108.813 143.177 108.813 131.45Z" fill="#FFB515"/>
<path d="M183.641 84.7154C192.138 84.7154 199.026 78.0529 199.026 69.8343C199.026 61.6156 192.138 54.9531 183.641 54.9531C175.144 54.9531 168.256 61.6156 168.256 69.8343C168.256 78.0529 175.144 84.7154 183.641 84.7154Z" fill="#C90016"/>
<path d="M252.303 105V62.7246H267.566C280.105 62.7246 287.459 70.459 287.459 83.7305V83.7891C287.459 97.207 280.164 105 267.566 105H252.303ZM258.865 99.3457H266.834C275.682 99.3457 280.779 93.6914 280.779 83.877V83.8184C280.779 74.0918 275.594 68.3789 266.834 68.3789H258.865V99.3457ZM309.053 105.615C299.708 105.615 293.995 99.375 293.995 89.1211V89.0625C293.995 78.8379 299.737 72.5684 309.053 72.5684C318.34 72.5684 324.083 78.8086 324.083 89.0625V89.1211C324.083 99.375 318.37 105.615 309.053 105.615ZM309.053 100.312C314.502 100.312 317.608 96.1523 317.608 89.1211V89.0625C317.608 82.002 314.502 77.8711 309.053 77.8711C303.575 77.8711 300.499 82.002 300.499 89.0625V89.1211C300.499 96.1816 303.575 100.312 309.053 100.312ZM336.507 105L327.718 73.1836H334.104L339.817 97.7344H340.286L346.849 73.1836H352.884L359.446 97.7344H359.944L365.628 73.1836H371.927L363.167 105H356.634L350.042 81.2695H349.544L342.981 105H336.507ZM378.374 105V73.1836H384.732V78.0176H385.201C386.753 74.6191 389.8 72.5684 394.429 72.5684C401.548 72.5684 405.474 76.8164 405.474 84.4043V105H399.146V85.8984C399.146 80.625 396.949 78.0176 392.291 78.0176C387.632 78.0176 384.732 81.2109 384.732 86.3379V105H378.374ZM414.588 105V60.7031H420.945V105H414.588ZM443.829 105.615C434.483 105.615 428.77 99.375 428.77 89.1211V89.0625C428.77 78.8379 434.512 72.5684 443.829 72.5684C453.116 72.5684 458.858 78.8086 458.858 89.0625V89.1211C458.858 99.375 453.145 105.615 443.829 105.615ZM443.829 100.312C449.278 100.312 452.383 96.1523 452.383 89.1211V89.0625C452.383 82.002 449.278 77.8711 443.829 77.8711C438.35 77.8711 435.274 82.002 435.274 89.0625V89.1211C435.274 96.1816 438.35 100.312 443.829 100.312ZM475.12 105.527C469.056 105.527 464.573 101.836 464.573 96.0645V96.0059C464.573 90.3223 468.851 87.0117 476.438 86.543L485.052 86.0449V83.2324C485.052 79.7461 482.854 77.8125 478.548 77.8125C475.032 77.8125 472.718 79.1016 471.956 81.3574L471.927 81.4746H465.804L465.833 81.2695C466.595 76.0547 471.604 72.5684 478.841 72.5684C486.839 72.5684 491.351 76.5527 491.351 83.2324V105H485.052V100.488H484.554C482.679 103.711 479.339 105.527 475.12 105.527ZM470.901 95.8008C470.901 98.7305 473.392 100.459 476.819 100.459C481.565 100.459 485.052 97.3535 485.052 93.252V90.5273L477.288 91.0254C472.894 91.2891 470.901 92.8711 470.901 95.7422V95.8008ZM511.861 105.527C503.863 105.527 498.677 99.1113 498.677 89.1211V89.0625C498.677 78.9844 503.775 72.627 511.861 72.627C516.226 72.627 519.947 74.7949 521.646 78.2227H522.144V60.7031H528.472V105H522.144V99.9902H521.646C519.8 103.477 516.314 105.527 511.861 105.527ZM513.677 100.107C518.98 100.107 522.232 95.918 522.232 89.1211V89.0625C522.232 82.2656 518.951 78.0762 513.677 78.0762C508.345 78.0762 505.152 82.2363 505.152 89.0625V89.1211C505.152 95.9473 508.345 100.107 513.677 100.107ZM556.485 105V78.1934H551.241V73.1836H556.485V69.8438C556.485 63.5156 559.678 60.4102 566.329 60.4102C567.735 60.4102 568.965 60.498 570.079 60.7031V65.3613C569.493 65.2734 568.643 65.2148 567.647 65.2148C564.131 65.2148 562.754 66.9141 562.754 70.1367V73.1836H569.815V78.1934H562.813V105H556.485ZM589.153 105.615C579.808 105.615 574.095 99.375 574.095 89.1211V89.0625C574.095 78.8379 579.837 72.5684 589.153 72.5684C598.44 72.5684 604.183 78.8086 604.183 89.0625V89.1211C604.183 99.375 598.47 105.615 589.153 105.615ZM589.153 100.312C594.602 100.312 597.708 96.1523 597.708 89.1211V89.0625C597.708 82.002 594.602 77.8711 589.153 77.8711C583.675 77.8711 580.599 82.002 580.599 89.0625V89.1211C580.599 96.1816 583.675 100.312 589.153 100.312ZM611.714 105V73.1836H618.072V77.9883H618.54C619.683 74.6191 622.642 72.627 626.89 72.627C627.915 72.627 629.029 72.7734 629.673 72.9199V78.7793C628.531 78.5449 627.447 78.3984 626.246 78.3984C621.382 78.3984 618.072 81.3867 618.072 85.9863V105H611.714Z" fill="white"/>
<path d="M275.198 191.318C261.832 191.318 253.482 183.445 253.482 171.799V137.156H262.93V171.03C262.93 178.318 267.361 183.152 275.235 183.152C283.072 183.152 287.466 178.318 287.466 171.03V137.156H296.915V171.799C296.915 183.445 288.638 191.318 275.198 191.318ZM331.172 190.659C325.569 190.659 321.211 188.096 319.014 183.738H318.392V190H309.273V134.482H318.392V156.345H319.014C321.102 152.024 325.679 149.314 331.172 149.314C341.316 149.314 347.615 157.224 347.615 169.968V170.042C347.615 182.712 341.207 190.659 331.172 190.659ZM328.316 182.969C334.541 182.969 338.313 178.098 338.313 170.042V169.968C338.313 161.912 334.541 157.004 328.316 157.004C322.127 157.004 318.282 161.948 318.282 169.968V170.042C318.282 178.062 322.127 182.969 328.316 182.969ZM369.935 190.806C360.926 190.806 356.312 185.386 356.312 175.864V149.973H365.43V173.777C365.43 179.966 367.737 183.115 373.23 183.115C379.126 183.115 382.276 179.307 382.276 173.301V149.973H391.395V190H382.276V183.921H381.653C379.786 188.206 375.721 190.806 369.935 190.806ZM402.471 190V149.973H411.59V156.089H412.212C414.117 151.804 417.962 149.204 423.748 149.204C432.684 149.204 437.554 154.587 437.554 164.109V190H428.436V166.233C428.436 160.007 425.909 156.858 420.379 156.858C414.959 156.858 411.59 160.667 411.59 166.672V190H402.471ZM464.012 190.183C454.82 190.183 451.048 187.107 451.048 179.38V157.041H444.822V149.973H451.048V140.159H460.313V149.973H468.772V157.041H460.313V177.219C460.313 181.211 461.888 182.896 465.696 182.896C466.978 182.896 467.674 182.859 468.772 182.749V189.78C467.454 190.037 465.77 190.183 464.012 190.183ZM491.055 190.806C482.046 190.806 477.432 185.386 477.432 175.864V149.973H486.551V173.777C486.551 179.966 488.858 183.115 494.351 183.115C500.247 183.115 503.396 179.307 503.396 173.301V149.973H512.515V190H503.396V183.921H502.774C500.906 188.206 496.841 190.806 491.055 190.806ZM542.488 134.482L526.741 203.293H518.245L533.992 134.482H542.488ZM549.244 190V137.156H569.056C584.766 137.156 593.921 146.75 593.921 163.303V163.376C593.921 180.295 584.876 190 569.056 190H549.244ZM558.692 182.053H567.81C578.321 182.053 584.29 175.388 584.29 163.523V163.45C584.29 151.841 578.174 145.103 567.81 145.103H558.692V182.053ZM620.892 190.806C608.99 190.806 601.775 182.822 601.775 170.078V170.042C601.775 157.444 609.063 149.204 620.452 149.204C631.841 149.204 638.872 157.188 638.872 169.272V172.275H610.894C611.004 179.453 614.886 183.628 621.075 183.628C626.018 183.628 628.838 181.138 629.717 179.307L629.827 179.05H638.506L638.396 179.38C637.115 184.543 631.768 190.806 620.892 190.806ZM620.562 156.345C615.472 156.345 611.663 159.788 610.967 166.16H629.974C629.351 159.604 625.652 156.345 620.562 156.345ZM670.201 190.659C664.598 190.659 660.24 188.096 658.042 183.738H657.42V190H648.301V134.482H657.42V156.345H658.042C660.13 152.024 664.707 149.314 670.201 149.314C680.345 149.314 686.643 157.224 686.643 169.968V170.042C686.643 182.712 680.235 190.659 670.201 190.659ZM667.344 182.969C673.57 182.969 677.342 178.098 677.342 170.042V169.968C677.342 161.912 673.57 157.004 667.344 157.004C661.155 157.004 657.31 161.948 657.31 169.968V170.042C657.31 178.062 661.155 182.969 667.344 182.969ZM700.393 143.271C697.391 143.271 694.937 140.891 694.937 137.888C694.937 134.922 697.391 132.505 700.393 132.505C703.36 132.505 705.813 134.922 705.813 137.888C705.813 140.891 703.36 143.271 700.393 143.271ZM695.816 190V149.973H704.934V190H695.816ZM726.997 190.659C719.38 190.659 713.85 185.972 713.85 178.684V178.611C713.85 171.47 719.307 167.295 729.048 166.709L739.339 166.086V162.644C739.339 158.652 736.739 156.455 731.831 156.455C727.657 156.455 724.947 157.957 724.031 160.593L723.995 160.74H715.389L715.425 160.41C716.304 153.672 722.749 149.204 732.271 149.204C742.561 149.204 748.348 154.185 748.348 162.644V190H739.339V184.507H738.716C736.519 188.389 732.271 190.659 726.997 190.659ZM722.859 178.245C722.859 181.65 725.752 183.665 729.781 183.665C735.274 183.665 739.339 180.076 739.339 175.315V172.092L730.33 172.678C725.24 173.008 722.859 174.875 722.859 178.171V178.245ZM759.241 190V149.973H768.36V156.089H768.982C770.887 151.804 774.732 149.204 780.518 149.204C789.454 149.204 794.324 154.587 794.324 164.109V190H785.205V166.233C785.205 160.007 782.679 156.858 777.149 156.858C771.729 156.858 768.36 160.667 768.36 166.672V190H759.241ZM831.748 190.732C828.416 190.732 825.926 188.206 825.926 184.946C825.926 181.687 828.416 179.16 831.748 179.16C835.118 179.16 837.571 181.687 837.571 184.946C837.571 188.206 835.118 190.732 831.748 190.732ZM862.564 190.659C852.53 190.659 846.158 182.712 846.158 170.042V169.968C846.158 157.224 852.42 149.314 862.564 149.314C868.057 149.314 872.635 152.024 874.722 156.345H875.345V134.482H884.5V190H875.345V183.738H874.722C872.525 188.096 868.203 190.659 862.564 190.659ZM865.42 182.969C871.646 182.969 875.491 178.062 875.491 170.042V169.968C875.491 161.948 871.609 157.004 865.42 157.004C859.231 157.004 855.423 161.912 855.423 169.968V170.042C855.423 178.098 859.195 182.969 865.42 182.969ZM913.045 190.806C901.143 190.806 893.929 182.822 893.929 170.078V170.042C893.929 157.444 901.216 149.204 912.605 149.204C923.995 149.204 931.026 157.188 931.026 169.272V172.275H903.047C903.157 179.453 907.039 183.628 913.228 183.628C918.172 183.628 920.992 181.138 921.87 179.307L921.98 179.05H930.66L930.55 179.38C929.268 184.543 923.921 190.806 913.045 190.806ZM912.715 156.345C907.625 156.345 903.816 159.788 903.12 166.16H922.127C921.504 159.604 917.806 156.345 912.715 156.345ZM962.354 190.659C956.751 190.659 952.393 188.096 950.196 183.738H949.573V190H940.454V134.482H949.573V156.345H950.196C952.283 152.024 956.861 149.314 962.354 149.314C972.498 149.314 978.797 157.224 978.797 169.968V170.042C978.797 182.712 972.388 190.659 962.354 190.659ZM959.497 182.969C965.723 182.969 969.495 178.098 969.495 170.042V169.968C969.495 161.912 965.723 157.004 959.497 157.004C953.308 157.004 949.463 161.948 949.463 169.968V170.042C949.463 178.062 953.308 182.969 959.497 182.969Z" fill="white"/>
</svg>
