<svg width="1020" height="265" viewBox="0 0 1020 265" fill="none" xmlns="http://www.w3.org/2000/svg">
<rect width="1020" height="265" rx="40" fill="#090909"/>
<rect x="68.8271" y="66" width="63.2128" height="63.4596" fill="#F15021"/>
<rect x="137.787" y="66" width="63.2128" height="63.4596" fill="#7EB900"/>
<rect x="68.8271" y="135.229" width="63.2128" height="63.4596" fill="#00A3EE"/>
<rect x="137.787" y="135.227" width="63.2128" height="63.4596" fill="#FFB800"/>
<path d="M262.115 106.025C250.133 106.025 242.574 97.4707 242.574 83.877V83.8184C242.574 70.4004 250.221 61.6992 262.057 61.6992C271.666 61.6992 278.492 67.1484 280.016 75.3223L280.074 75.6152H273.512L273.424 75.3223C271.9 70.3125 267.857 67.5 262.057 67.5C254.234 67.5 249.283 73.8281 249.283 83.7891V83.8477C249.283 93.9551 254.264 100.225 262.203 100.225C269.117 100.225 273.834 95.8594 273.893 89.3555V88.418H263.023V83.1152H280.367V88.3594C280.367 99.082 273.189 106.025 262.115 106.025ZM301.991 105.615C292.674 105.615 287.049 99.2578 287.049 89.1797V89.1504C287.049 79.2188 292.791 72.5684 301.668 72.5684C310.545 72.5684 315.995 78.9844 315.995 88.5352V90.7617H293.436C293.553 96.8555 296.893 100.4 302.137 100.4C306.209 100.4 308.641 98.3789 309.403 96.7383L309.52 96.5039L315.643 96.4746L315.584 96.7383C314.53 100.928 310.135 105.615 301.991 105.615ZM301.698 77.7832C297.362 77.7832 294.081 80.7422 293.524 86.2207H309.696C309.198 80.5371 306.004 77.7832 301.698 77.7832ZM335.509 105.205C328.507 105.205 325.636 102.744 325.636 96.6211V78.1934H320.655V73.1836H325.636V65.1562H332.11V73.1836H338.937V78.1934H332.11V95.0977C332.11 98.5254 333.399 99.9316 336.534 99.9316C337.501 99.9316 338.058 99.9023 338.937 99.8145V104.883C337.911 105.059 336.739 105.205 335.509 105.205ZM365.953 67.5C363.756 67.5 361.969 65.7129 361.969 63.5449C361.969 61.3477 363.756 59.5605 365.953 59.5605C368.121 59.5605 369.937 61.3477 369.937 63.5449C369.937 65.7129 368.121 67.5 365.953 67.5ZM362.76 105V73.1836H369.088V105H362.76ZM390.301 105.205C383.299 105.205 380.428 102.744 380.428 96.6211V78.1934H375.448V73.1836H380.428V65.1562H386.903V73.1836H393.729V78.1934H386.903V95.0977C386.903 98.5254 388.192 99.9316 391.327 99.9316C392.293 99.9316 392.85 99.9023 393.729 99.8145V104.883C392.704 105.059 391.532 105.205 390.301 105.205ZM419.691 105V78.1934H414.447V73.1836H419.691V69.8438C419.691 63.5156 422.884 60.4102 429.535 60.4102C430.941 60.4102 432.171 60.498 433.285 60.7031V65.3613C432.699 65.2734 431.849 65.2148 430.853 65.2148C427.337 65.2148 425.96 66.9141 425.96 70.1367V73.1836H433.021V78.1934H426.019V105H419.691ZM440.113 105V73.1836H446.471V77.9883H446.939C448.082 74.6191 451.041 72.627 455.289 72.627C456.314 72.627 457.428 72.7734 458.072 72.9199V78.7793C456.93 78.5449 455.846 78.3984 454.644 78.3984C449.781 78.3984 446.471 81.3867 446.471 85.9863V105H440.113ZM476.737 105.615C467.391 105.615 461.678 99.375 461.678 89.1211V89.0625C461.678 78.8379 467.42 72.5684 476.737 72.5684C486.024 72.5684 491.766 78.8086 491.766 89.0625V89.1211C491.766 99.375 486.053 105.615 476.737 105.615ZM476.737 100.312C482.186 100.312 485.291 96.1523 485.291 89.1211V89.0625C485.291 82.002 482.186 77.8711 476.737 77.8711C471.258 77.8711 468.182 82.002 468.182 89.0625V89.1211C468.182 96.1816 471.258 100.312 476.737 100.312ZM499.298 105V73.1836H505.655V78.0762H506.124C507.53 74.5898 510.636 72.5684 514.796 72.5684C519.132 72.5684 522.208 74.8242 523.614 78.252H524.112C525.724 74.8242 529.386 72.5684 533.809 72.5684C540.225 72.5684 543.975 76.4355 543.975 83.0566V105H537.647V84.5801C537.647 80.1855 535.655 78.0176 531.495 78.0176C527.452 78.0176 524.786 81.0352 524.786 84.873V105H518.458V83.9355C518.458 80.3027 516.085 78.0176 512.335 78.0176C508.497 78.0176 505.655 81.2988 505.655 85.459V105H499.298Z" fill="white"/>
<path d="M246.822 201V137.587H259.83L278.902 186.366H279.649L298.678 137.587H311.686V201H301.49V155.912H300.699L283.121 201H275.387L257.809 155.912H257.062V201H246.822ZM331.812 144.926C328.209 144.926 325.265 142.069 325.265 138.466C325.265 134.906 328.209 132.006 331.812 132.006C335.372 132.006 338.316 134.906 338.316 138.466C338.316 142.069 335.372 144.926 331.812 144.926ZM326.319 201V152.968H337.262V201H326.319ZM371.319 201.967C356.861 201.967 348.336 192.606 348.336 176.918V176.83C348.336 161.317 356.817 152.045 371.275 152.045C383.624 152.045 391.007 158.9 392.237 168.832V169.008H381.91L381.866 168.876C380.855 164.218 377.296 160.878 371.319 160.878C363.849 160.878 359.454 166.767 359.454 176.83V176.918C359.454 187.113 363.893 193.09 371.319 193.09C376.988 193.09 380.46 190.497 381.822 185.443L381.91 185.268L392.237 185.224L392.149 185.575C390.567 195.419 383.492 201.967 371.319 201.967ZM402.652 201V152.968H413.595V160.351H414.342C415.968 155.209 420.362 152.177 426.69 152.177C428.36 152.177 430.074 152.396 431.129 152.704V162.504C429.371 162.152 427.569 161.889 425.68 161.889C418.385 161.889 413.595 166.239 413.595 173.095V201H402.652ZM459.605 201.967C445.191 201.967 436.49 192.562 436.49 177.006V176.918C436.49 161.493 445.323 152.045 459.605 152.045C473.932 152.045 482.721 161.449 482.721 176.918V177.006C482.721 192.562 473.976 201.967 459.605 201.967ZM459.605 193.09C467.208 193.09 471.515 187.157 471.515 177.05V176.962C471.515 166.854 467.164 160.878 459.605 160.878C452.003 160.878 447.652 166.854 447.652 176.962V177.05C447.652 187.157 452.003 193.09 459.605 193.09ZM511.856 201.967C499.64 201.967 492.257 196.342 491.334 188.212V188.124H502.188L502.232 188.212C503.375 191.552 506.583 193.881 512.032 193.881C517.481 193.881 521.261 191.42 521.261 187.816V187.729C521.261 184.916 519.151 183.07 513.878 181.884L506.1 180.126C496.959 178.104 492.608 173.798 492.608 166.723V166.679C492.608 158.021 500.519 152.045 511.856 152.045C523.546 152.045 530.533 157.846 531.236 165.624V165.712H520.953L520.909 165.58C520.118 162.548 516.954 160.087 511.812 160.087C506.935 160.087 503.419 162.46 503.419 166.063V166.107C503.419 168.92 505.44 170.634 510.626 171.82L518.404 173.534C527.809 175.644 532.247 179.643 532.247 186.63V186.718C532.247 195.858 523.678 201.967 511.856 201.967ZM564.02 201.967C549.605 201.967 540.904 192.562 540.904 177.006V176.918C540.904 161.493 549.737 152.045 564.02 152.045C578.346 152.045 587.135 161.449 587.135 176.918V177.006C587.135 192.562 578.39 201.967 564.02 201.967ZM564.02 193.09C571.622 193.09 575.929 187.157 575.929 177.05V176.962C575.929 166.854 571.578 160.878 564.02 160.878C556.417 160.878 552.066 166.854 552.066 176.962V177.05C552.066 187.157 556.417 193.09 564.02 193.09ZM601.637 201V161.449H593.771V152.968H601.637V148.222C601.637 138.642 606.471 133.939 617.193 133.939C619.522 133.939 621.5 134.071 623.258 134.379V142.025C622.423 141.894 621.061 141.806 619.522 141.806C614.381 141.806 612.403 144.267 612.403 148.837V152.968H622.818V161.449H612.579V201H601.637ZM652.525 201.22C641.495 201.22 636.969 197.528 636.969 188.256V161.449H629.498V152.968H636.969V141.19H648.087V152.968H658.238V161.449H648.087V185.663C648.087 190.453 649.977 192.475 654.547 192.475C656.085 192.475 656.92 192.431 658.238 192.299V200.736C656.656 201.044 654.635 201.22 652.525 201.22ZM716.29 202.582C701.568 202.582 692.208 195.331 691.417 184.389L691.373 183.773H702.359L702.403 184.213C702.931 189.53 708.6 193.046 716.642 193.046C724.288 193.046 729.649 189.267 729.649 183.817V183.773C729.649 179.203 726.354 176.435 718.18 174.677L711.368 173.271C698.404 170.546 692.779 164.481 692.779 155.033V154.989C692.779 143.651 702.535 136.005 716.246 136.005C730.309 136.005 739.054 143.695 739.845 153.891L739.889 154.462H729.034L728.946 153.935C728.155 149.013 723.453 145.497 716.202 145.541C709.171 145.541 704.161 148.837 704.161 154.242V154.286C704.161 158.769 707.369 161.581 715.279 163.251L722.091 164.701C735.45 167.514 741.031 172.875 741.031 182.455V182.499C741.031 194.848 731.495 202.582 716.29 202.582ZM771.529 201.22C760.499 201.22 755.973 197.528 755.973 188.256V161.449H748.502V152.968H755.973V141.19H767.091V152.968H777.242V161.449H767.091V185.663C767.091 190.453 768.98 192.475 773.551 192.475C775.089 192.475 775.924 192.431 777.242 192.299V200.736C775.66 201.044 773.639 201.22 771.529 201.22ZM808.443 201.967C794.029 201.967 785.328 192.562 785.328 177.006V176.918C785.328 161.493 794.161 152.045 808.443 152.045C822.77 152.045 831.559 161.449 831.559 176.918V177.006C831.559 192.562 822.813 201.967 808.443 201.967ZM808.443 193.09C816.046 193.09 820.353 187.157 820.353 177.05V176.962C820.353 166.854 816.002 160.878 808.443 160.878C800.841 160.878 796.49 166.854 796.49 176.962V177.05C796.49 187.157 800.841 193.09 808.443 193.09ZM842.545 201V152.968H853.487V160.351H854.234C855.86 155.209 860.255 152.177 866.583 152.177C868.253 152.177 869.967 152.396 871.021 152.704V162.504C869.264 162.152 867.462 161.889 865.572 161.889C858.277 161.889 853.487 166.239 853.487 173.095V201H842.545ZM899.322 201.967C885.04 201.967 876.383 192.387 876.383 177.094V177.05C876.383 161.933 885.128 152.045 898.795 152.045C912.462 152.045 920.899 161.625 920.899 176.127V179.73H887.325C887.457 188.344 892.115 193.354 899.542 193.354C905.475 193.354 908.858 190.365 909.913 188.168L910.045 187.86H920.46L920.328 188.256C918.79 194.452 912.374 201.967 899.322 201.967ZM898.927 160.614C892.818 160.614 888.248 164.745 887.413 172.392H910.221C909.474 164.525 905.035 160.614 898.927 160.614Z" fill="white"/>
</svg>
